<?xml version="1.0" ?><svg enable-background="new 0 0 100 100" id="Layer_1" version="1.1" viewBox="0 0 100 100" xml:space="preserve" xmlns="http://www.w3.org/2000/svg" xmlns:xlink="http://www.w3.org/1999/xlink"><path d="M74.952,44.795l0.492-0.63c1.128-1.461,1.749-3.319,1.749-5.232v-3.871c0-6.38-3.765-12.187-9.591-14.793  c-0.915-0.411-1.506-1.32-1.506-2.315v-2.971c0.772-0.397,1.306-1.192,1.306-2.118V7.419c0-1.317-1.071-2.389-2.389-2.389h-16.47  c-1.317,0-2.389,1.071-2.389,2.389v5.447c0,0.926,0.535,1.723,1.308,2.119v2.951c0,1.006-0.598,1.917-1.536,2.326l-0.098,0.044  c-5.896,2.579-9.706,8.406-9.706,14.845v3.783c0,1.914,0.621,3.772,1.746,5.229l0.482,0.628c0.871,1.127,1.35,2.56,1.35,4.039  l0.012,4.604c-0.139-0.185-0.287-0.367-0.448-0.541c-2.676-2.882-7.313-2.774-7.512-2.765c-0.486,0.014-0.888,0.386-0.941,0.87  c-0.021,0.195-0.497,4.818,2.18,7.701c0.659,0.712,1.442,1.237,2.249,1.631c-7.187,2.268-12.432,9.012-12.432,16.906  c0,9.778,7.955,17.733,17.734,17.733c0.381,0,0.761-0.012,1.131-0.039c0.19,0.021,0.38,0.039,0.57,0.039h28.829  c3.375,0,6.121-3,6.121-6.687v-9.121c0-2.076-0.72-4.056-2.031-5.58c-0.998-1.142-1.548-2.663-1.548-4.284V48.827  C73.614,47.342,74.09,45.909,74.952,44.795z M48.11,7.419c0-0.239,0.194-0.433,0.433-0.433h16.47c0.239,0,0.433,0.195,0.433,0.433  v5.447c0,0.24-0.195,0.434-0.433,0.434h-16.47c-0.239,0-0.433-0.195-0.433-0.434V7.419z M34.424,57.37  c-1.451-1.562-1.689-3.952-1.702-5.248c1.291,0.114,3.656,0.537,5.107,2.099c1.446,1.564,1.687,3.956,1.701,5.253  C38.231,59.366,35.881,58.944,34.424,57.37z M41.578,92.978c-0.345,0.028-0.691,0.036-1.036,0.036  c-8.701,0-15.779-7.078-15.779-15.778c0-8.604,6.999-15.677,15.592-15.769h0.117h0.197c8.629,0.073,15.65,7.147,15.65,15.769  C56.32,85.517,49.85,92.432,41.578,92.978z M72.603,73.251H57.803c-1.752-7.535-8.34-13.256-16.308-13.691  c0.033-1.008,0.28-2.739,1.48-3.947c1.182-1.19,3.075-1.656,5.621-1.383c0.54,0.056,1.019-0.331,1.076-0.868  c0.058-0.537-0.331-1.019-0.868-1.076c-3.118-0.337-5.513,0.301-7.134,1.879l-0.013-5.338c0-1.275-0.285-2.525-0.808-3.654h31.613  c-0.519,1.126-0.802,2.375-0.802,3.654v20.471C71.659,70.708,71.992,72.06,72.603,73.251z M73.929,75.207  c0.833,1.115,1.308,2.494,1.308,3.955v9.121c0,2.609-1.868,4.731-4.165,4.731h-22.48c5.756-2.953,9.683-8.946,9.683-15.778  c0-0.687-0.05-1.362-0.127-2.03H73.929z M39.609,43.218l-0.19-0.248c-0.864-1.119-1.34-2.553-1.34-4.036V35.15  c0-5.663,3.35-10.787,8.545-13.059l0.096-0.043c1.64-0.714,2.699-2.328,2.699-4.113v-2.679h14.723v2.698  c0,1.763,1.043,3.372,2.661,4.099c5.125,2.292,8.436,7.399,8.436,13.009v3.871c0,1.484-0.476,2.917-1.338,4.032l-0.197,0.253H39.609  z"/></svg>